<svg xmlns="http://www.w3.org/2000/svg" xmlns:xlink="http://www.w3.org/1999/xlink" width="126" height="126" viewBox="0 0 126 126">
  <defs>
    <filter id="Ellipse_108" x="10.5" y="82.5" width="33" height="33" filterUnits="userSpaceOnUse">
      <feOffset input="SourceAlpha"/>
      <feGaussianBlur stdDeviation="2.5" result="blur"/>
      <feFlood flood-opacity="0.161"/>
      <feComposite operator="in" in2="blur"/>
      <feComposite in="SourceGraphic"/>
    </filter>
    <filter id="Ellipse_107" x="82.5" y="10.5" width="33" height="33" filterUnits="userSpaceOnUse">
      <feOffset input="SourceAlpha"/>
      <feGaussianBlur stdDeviation="2.5" result="blur-2"/>
      <feFlood flood-opacity="0.161"/>
      <feComposite operator="in" in2="blur-2"/>
      <feComposite in="SourceGraphic"/>
    </filter>
    <filter id="Ellipse_109" x="82.5" y="84.5" width="33" height="33" filterUnits="userSpaceOnUse">
      <feOffset input="SourceAlpha"/>
      <feGaussianBlur stdDeviation="2.5" result="blur-3"/>
      <feFlood flood-opacity="0.161"/>
      <feComposite operator="in" in2="blur-3"/>
      <feComposite in="SourceGraphic"/>
    </filter>
    <filter id="Ellipse_110" x="10.5" y="10.5" width="33" height="33" filterUnits="userSpaceOnUse">
      <feOffset input="SourceAlpha"/>
      <feGaussianBlur stdDeviation="2.5" result="blur-4"/>
      <feFlood flood-opacity="0.161"/>
      <feComposite operator="in" in2="blur-4"/>
      <feComposite in="SourceGraphic"/>
    </filter>
    <filter id="Ellipse_111" x="82.5" y="46.5" width="33" height="33" filterUnits="userSpaceOnUse">
      <feOffset input="SourceAlpha"/>
      <feGaussianBlur stdDeviation="2.5" result="blur-5"/>
      <feFlood flood-opacity="0.161"/>
      <feComposite operator="in" in2="blur-5"/>
      <feComposite in="SourceGraphic"/>
    </filter>
    <filter id="Ellipse_112" x="10.5" y="46.5" width="33" height="33" filterUnits="userSpaceOnUse">
      <feOffset input="SourceAlpha"/>
      <feGaussianBlur stdDeviation="2.5" result="blur-6"/>
      <feFlood flood-opacity="0.161"/>
      <feComposite operator="in" in2="blur-6"/>
      <feComposite in="SourceGraphic"/>
    </filter>
  </defs>
  <g id="Group_112" data-name="Group 112" transform="translate(-1174 -677)">
    <rect id="Rectangle_111" data-name="Rectangle 111" width="126" height="126" rx="5" transform="translate(1174 677)" fill="rgba(255,255,255,0)"/>
    <g transform="matrix(1, 0, 0, 1, 1174, 677)" filter="url(#Ellipse_108)">
      <circle id="Ellipse_108-2" data-name="Ellipse 108" cx="9" cy="9" r="9" transform="translate(18 90)" fill="#242424"/>
    </g>
    <g transform="matrix(1, 0, 0, 1, 1174, 677)" filter="url(#Ellipse_107)">
      <circle id="Ellipse_107-2" data-name="Ellipse 107" cx="9" cy="9" r="9" transform="translate(90 18)" fill="#242424"/>
    </g>
    <g transform="matrix(1, 0, 0, 1, 1174, 677)" filter="url(#Ellipse_109)">
      <circle id="Ellipse_109-2" data-name="Ellipse 109" cx="9" cy="9" r="9" transform="translate(90 92)" fill="#242424"/>
    </g>
    <g transform="matrix(1, 0, 0, 1, 1174, 677)" filter="url(#Ellipse_110)">
      <circle id="Ellipse_110-2" data-name="Ellipse 110" cx="9" cy="9" r="9" transform="translate(18 18)" fill="#242424"/>
    </g>
    <g transform="matrix(1, 0, 0, 1, 1174, 677)" filter="url(#Ellipse_111)">
      <circle id="Ellipse_111-2" data-name="Ellipse 111" cx="9" cy="9" r="9" transform="translate(90 54)" fill="#242424"/>
    </g>
    <g transform="matrix(1, 0, 0, 1, 1174, 677)" filter="url(#Ellipse_112)">
      <circle id="Ellipse_112-2" data-name="Ellipse 112" cx="9" cy="9" r="9" transform="translate(18 54)" fill="#242424"/>
    </g>
  </g>
</svg>
